<?xml version="1.0" encoding="utf-8"?>
<!-- Generator: Adobe Illustrator 17.0.0, SVG Export Plug-In . SVG Version: 6.00 Build 0)  -->
<!DOCTYPE svg PUBLIC "-//W3C//DTD SVG 1.1//EN" "http://www.w3.org/Graphics/SVG/1.1/DTD/svg11.dtd">
<svg version="1.1" id="Layer_1" xmlns="http://www.w3.org/2000/svg" xmlns:xlink="http://www.w3.org/1999/xlink" x="0px" y="0px"
	 width="221.465px" height="41.056px" viewBox="0 0 221.465 41.056" enable-background="new 0 0 221.465 41.056"
	 xml:space="preserve">
<g>
	<path fill="#864EED" d="M47.101,5.946c0.024,0.445-0.013,0.91-0.111,1.393c-0.099,0.483-0.31,0.935-0.631,1.355
		c-0.322,0.421-0.792,0.78-1.411,1.077c-0.619,0.297-1.424,0.458-2.414,0.483c-1.04,0.05-2.396-0.075-4.067-0.372
		c-1.671-0.297-3.509-0.662-5.515-1.096c-2.006-0.433-4.073-0.897-6.202-1.393c-2.13-0.495-4.172-0.94-6.128-1.337
		c-1.956-0.396-3.727-0.693-5.311-0.892c-1.584-0.198-2.81-0.223-3.677-0.074c-0.668,0.125-1.3,0.334-1.894,0.631
		C9.146,6.02,8.626,6.379,8.18,6.8C7.735,7.221,7.375,7.685,7.103,8.192C6.831,8.7,6.682,9.226,6.657,9.771
		c-0.05,0.644,0.037,1.232,0.26,1.764c0.223,0.533,0.544,0.972,0.965,1.318s0.929,0.594,1.523,0.743s1.238,0.161,1.931,0.037
		c0.247-0.049,0.278,0.124,0.093,0.52c-0.186,0.396-0.52,0.854-1.003,1.374c-0.482,0.52-1.089,1.009-1.82,1.467
		c-0.73,0.458-1.504,0.725-2.321,0.799c-0.743,0.05-1.43-0.024-2.062-0.223c-0.631-0.198-1.183-0.495-1.652-0.891
		C2.102,16.283,1.749,15.8,1.514,15.23c-0.235-0.569-0.328-1.201-0.278-1.894c0.074-1.263,0.353-2.433,0.835-3.51
		S3.185,7.784,3.965,6.93c0.78-0.854,1.671-1.584,2.674-2.191c1.003-0.606,2.086-1.071,3.25-1.393
		c0.94-0.248,2.092-0.353,3.454-0.316c1.361,0.037,2.828,0.161,4.401,0.372c1.572,0.21,3.188,0.477,4.847,0.798
		c1.658,0.322,3.255,0.638,4.791,0.947c1.535,0.31,2.958,0.582,4.271,0.817s2.389,0.365,3.231,0.39
		c1.114,0.05,2.166,0.013,3.157-0.111c0.99-0.124,1.851-0.321,2.581-0.594c0.73-0.272,1.287-0.625,1.671-1.058
		c0.383-0.433,0.525-0.947,0.427-1.542c-0.05-0.247,0.142-0.372,0.576-0.372c0.433,0,0.929,0.125,1.486,0.372
		c0.557,0.248,1.07,0.613,1.541,1.096C46.792,4.627,47.051,5.228,47.101,5.946z M9.889,38.405c-0.149-0.445-0.125-1.177,0.074-2.191
		c0.198-1.016,0.495-2.204,0.891-3.565c0.396-1.361,0.873-2.847,1.43-4.457c0.557-1.609,1.126-3.218,1.708-4.828
		c0.582-1.609,1.151-3.175,1.708-4.698c0.557-1.522,1.033-2.89,1.43-4.104c0.396-1.213,0.681-2.216,0.854-3.008
		c0.173-0.792,0.186-1.263,0.037-1.412c-0.125-0.099-0.093-0.216,0.093-0.353c0.186-0.136,0.451-0.247,0.798-0.334
		c0.347-0.086,0.743-0.142,1.188-0.167c0.446-0.024,0.866,0.013,1.263,0.111c0.396,0.099,0.743,0.285,1.04,0.557
		c0.297,0.273,0.47,0.656,0.52,1.151c0.099,0.941-0.056,2.186-0.464,3.732c-0.409,1.548-0.947,3.244-1.616,5.088
		c-0.668,1.845-1.405,3.757-2.209,5.738c-0.805,1.981-1.548,3.863-2.229,5.646c-0.681,1.783-1.244,3.386-1.69,4.81
		c-0.445,1.424-0.644,2.507-0.594,3.25c0,0.223-0.173,0.438-0.52,0.649c-0.347,0.21-0.756,0.315-1.226,0.315
		c-0.471,0-0.947-0.136-1.43-0.408S10.111,39.147,9.889,38.405z"/>
	<path fill="#864EED" d="M22.33,29.157c-0.148-0.446-0.105-1.164,0.13-2.154s0.594-2.148,1.077-3.473
		c0.483-1.324,1.046-2.754,1.69-4.29c0.644-1.535,1.306-3.083,1.987-4.642c0.681-1.56,1.337-3.076,1.968-4.55
		c0.631-1.473,1.182-2.791,1.653-3.955c0.47-1.164,0.817-2.129,1.04-2.897c0.223-0.767,0.26-1.226,0.111-1.374
		c-0.173-0.148-0.093-0.321,0.241-0.52c0.334-0.198,0.755-0.309,1.263-0.334c0.507-0.024,1.021,0.087,1.542,0.334
		c0.52,0.248,0.891,0.743,1.114,1.486c0.148,0.47,0.111,1.151-0.112,2.042c-0.223,0.891-0.557,1.925-1.002,3.101
		c-0.446,1.176-0.979,2.458-1.597,3.844c-0.619,1.387-1.263,2.786-1.931,4.197c0.866-0.966,1.751-1.783,2.655-2.451
		s1.751-1.015,2.544-1.04c0.966-0.024,1.684,0.396,2.154,1.263c0.47,0.867,0.619,1.981,0.446,3.343
		c-0.05,0.842-0.236,1.727-0.557,2.655c-0.322,0.928-0.687,1.838-1.096,2.729c-0.409,0.892-0.817,1.74-1.226,2.544
		c-0.409,0.805-0.724,1.504-0.947,2.099c-0.223,0.594-0.315,1.071-0.278,1.43c0.037,0.36,0.303,0.539,0.798,0.539
		c0.223,0,0.532-0.179,0.929-0.539c0.396-0.358,0.829-0.829,1.3-1.411c0.47-0.582,0.959-1.238,1.467-1.968
		c0.507-0.73,0.984-1.455,1.43-2.173c0.445-0.718,0.841-1.405,1.188-2.061c0.347-0.656,0.594-1.194,0.743-1.616
		c0.074-0.198,0.198-0.321,0.371-0.371c0.173-0.049,0.334-0.049,0.483,0c0.148,0.05,0.266,0.148,0.353,0.297
		c0.086,0.148,0.08,0.31-0.019,0.483c-0.199,0.421-0.483,0.997-0.854,1.727c-0.371,0.73-0.811,1.51-1.318,2.339
		c-0.508,0.83-1.059,1.666-1.653,2.507c-0.594,0.842-1.207,1.61-1.838,2.303c-0.631,0.694-1.269,1.263-1.913,1.708
		c-0.644,0.446-1.263,0.669-1.857,0.669c-0.496,0.024-0.916-0.093-1.263-0.353c-0.347-0.261-0.631-0.613-0.854-1.059
		c-0.223-0.446-0.378-0.948-0.464-1.505c-0.087-0.557-0.093-1.12-0.019-1.69c0.124-1.015,0.359-2.018,0.706-3.008
		s0.725-1.937,1.133-2.841c0.409-0.903,0.811-1.733,1.207-2.488c0.396-0.755,0.693-1.411,0.892-1.968
		c0.198-0.557,0.266-0.984,0.204-1.281c-0.062-0.297-0.353-0.433-0.873-0.409c-0.322,0.025-0.786,0.297-1.393,0.817
		c-0.607,0.52-1.244,1.169-1.913,1.95c-0.668,0.78-1.325,1.609-1.968,2.488c-0.644,0.879-1.164,1.677-1.56,2.396l-0.482,1.002v0.037
		l-0.074,0.148c-0.793,1.758-1.418,3.256-1.875,4.494c-0.458,1.239-0.588,2.043-0.39,2.414c0.099,0.198,0.019,0.403-0.241,0.613
		c-0.26,0.21-0.594,0.321-1.003,0.334c-0.409,0.012-0.829-0.117-1.263-0.39C22.881,30.408,22.553,29.9,22.33,29.157z"/>
	<path fill="#864EED" d="M57.76,18.981c0.297,0.198,0.371,0.47,0.223,0.817c-0.421,0.891-0.923,1.826-1.504,2.804
		c-0.582,0.979-1.239,1.932-1.969,2.86c-0.73,0.929-1.504,1.783-2.321,2.562c-0.817,0.78-1.666,1.418-2.544,1.913
		c-0.879,0.496-1.777,0.817-2.693,0.966s-1.82,0.037-2.711-0.334c-0.991-0.396-1.702-0.972-2.136-1.728
		c-0.433-0.755-0.687-1.59-0.761-2.507c-0.074-0.916,0-1.862,0.223-2.841c0.223-0.978,0.496-1.875,0.817-2.692
		c0.594-1.51,1.256-2.792,1.987-3.844c0.73-1.052,1.504-1.913,2.321-2.581s1.658-1.164,2.525-1.485
		c0.866-0.322,1.746-0.483,2.637-0.483c0.916,0,1.591,0.223,2.024,0.668s0.65,1.028,0.65,1.746c0,0.718-0.198,1.51-0.594,2.377
		s-0.959,1.715-1.689,2.544c-0.73,0.83-1.616,1.584-2.656,2.265c-1.04,0.682-2.204,1.195-3.491,1.542
		c-0.173,0.644-0.297,1.281-0.372,1.913s-0.087,1.207-0.037,1.727c0.049,0.52,0.167,0.953,0.353,1.3
		c0.186,0.347,0.464,0.557,0.835,0.631c0.544,0.1,1.133,0.019,1.764-0.241c0.631-0.26,1.275-0.65,1.931-1.17
		c0.656-0.52,1.3-1.126,1.931-1.82c0.631-0.693,1.226-1.424,1.783-2.191c0.557-0.767,1.052-1.528,1.485-2.284
		s0.774-1.455,1.021-2.099c0.074-0.198,0.204-0.334,0.39-0.409C57.37,18.832,57.561,18.857,57.76,18.981z M46.878,21.321
		c-0.124,0.273-0.223,0.52-0.297,0.743c1.485-0.52,2.705-1.231,3.658-2.136c0.953-0.903,1.665-1.795,2.135-2.674
		c0.47-0.878,0.711-1.64,0.724-2.284c0.012-0.644-0.204-0.978-0.65-1.002c-0.668-0.024-1.51,0.619-2.525,1.931
		C48.908,17.211,47.893,19.018,46.878,21.321z"/>
	<path fill="#864EED" d="M112.353,5.946c0.025,0.445-0.012,0.91-0.111,1.393c-0.099,0.483-0.31,0.935-0.631,1.355
		c-0.322,0.421-0.792,0.78-1.411,1.077c-0.619,0.297-1.424,0.458-2.414,0.483c-1.04,0.05-2.396-0.075-4.067-0.372
		c-1.671-0.297-3.509-0.662-5.515-1.096c-2.006-0.433-4.073-0.897-6.202-1.393c-2.13-0.495-4.172-0.94-6.128-1.337
		c-1.956-0.396-3.727-0.693-5.311-0.892c-1.584-0.198-2.81-0.223-3.677-0.074c-0.668,0.125-1.3,0.334-1.894,0.631
		c-0.594,0.297-1.114,0.656-1.56,1.077c-0.446,0.421-0.805,0.886-1.077,1.393c-0.272,0.508-0.421,1.034-0.446,1.579
		c-0.05,0.644,0.037,1.232,0.26,1.764c0.223,0.533,0.544,0.972,0.965,1.318s0.929,0.594,1.523,0.743s1.238,0.161,1.931,0.037
		c0.247-0.049,0.278,0.124,0.093,0.52c-0.186,0.396-0.52,0.854-1.003,1.374c-0.482,0.52-1.089,1.009-1.82,1.467
		c-0.73,0.458-1.504,0.725-2.321,0.799c-0.743,0.05-1.43-0.024-2.062-0.223c-0.631-0.198-1.183-0.495-1.652-0.891
		c-0.471-0.396-0.824-0.878-1.059-1.448c-0.235-0.569-0.328-1.201-0.278-1.894c0.074-1.263,0.353-2.433,0.835-3.51
		s1.114-2.042,1.894-2.897c0.78-0.854,1.671-1.584,2.674-2.191c1.003-0.606,2.086-1.071,3.25-1.393
		c0.94-0.248,2.092-0.353,3.454-0.316c1.361,0.037,2.828,0.161,4.401,0.372c1.572,0.21,3.188,0.477,4.847,0.798
		c1.658,0.322,3.255,0.638,4.791,0.947c1.535,0.31,2.958,0.582,4.271,0.817s2.389,0.365,3.231,0.39
		c1.114,0.05,2.166,0.013,3.157-0.111c0.99-0.124,1.851-0.321,2.581-0.594c0.73-0.272,1.287-0.625,1.671-1.058
		c0.383-0.433,0.525-0.947,0.427-1.542c-0.05-0.247,0.142-0.372,0.576-0.372c0.433,0,0.929,0.125,1.486,0.372
		c0.557,0.248,1.07,0.613,1.541,1.096S112.304,5.228,112.353,5.946z M71.352,26.854c-0.024,0.347-0.121,0.576-0.29,0.687
		c-0.169,0.112-0.356,0.1-0.562-0.037c-0.206-0.136-0.375-0.396-0.508-0.78c-0.133-0.383-0.176-0.897-0.126-1.541
		c0.072-0.916,0.387-1.634,0.945-2.154s1.289-0.903,2.193-1.151c0.903-0.247,1.943-0.377,3.12-0.39
		c1.176-0.012,2.42,0.031,3.732,0.13c0.52-1.436,1.015-2.816,1.485-4.141c0.47-1.324,0.867-2.507,1.188-3.546
		c0.322-1.04,0.557-1.895,0.706-2.563c0.148-0.668,0.148-1.077,0-1.226c-0.125-0.099-0.093-0.216,0.093-0.353
		c0.186-0.136,0.451-0.247,0.798-0.334c0.346-0.086,0.743-0.142,1.188-0.167c0.446-0.024,0.866,0.013,1.263,0.111
		c0.396,0.099,0.743,0.285,1.04,0.557c0.297,0.273,0.47,0.656,0.52,1.151c0.049,0.57,0.006,1.244-0.13,2.024
		c-0.136,0.78-0.334,1.647-0.594,2.6c-0.26,0.954-0.582,1.975-0.965,3.064c-0.384,1.09-0.787,2.204-1.207,3.343
		c1.188,0.074,2.401,0.105,3.64,0.093c1.238-0.012,2.37-0.08,3.398-0.204c1.027-0.124,1.875-0.303,2.544-0.539
		s1.04-0.551,1.114-0.947c0.049-0.371,0.191-0.563,0.427-0.576c0.235-0.012,0.458,0.081,0.668,0.279
		c0.21,0.198,0.346,0.458,0.408,0.78c0.062,0.322-0.056,0.619-0.353,0.891c-0.297,0.273-0.761,0.551-1.393,0.836
		s-1.461,0.551-2.488,0.798c-1.028,0.248-2.272,0.446-3.732,0.594c-1.461,0.148-3.17,0.235-5.125,0.26
		c-0.619,1.56-1.232,3.101-1.838,4.625c-0.607,1.522-1.151,2.952-1.634,4.289s-0.873,2.531-1.17,3.584
		c-0.297,1.052-0.421,1.875-0.372,2.47c0,0.223-0.173,0.438-0.52,0.649c-0.347,0.21-0.755,0.315-1.226,0.315
		s-0.947-0.136-1.43-0.408s-0.835-0.78-1.059-1.522c-0.148-0.421-0.136-1.103,0.038-2.043c0.173-0.941,0.439-2.042,0.798-3.305
		c0.358-1.263,0.792-2.643,1.3-4.141c0.507-1.499,1.045-3.015,1.616-4.551c-1.04,0.025-2.012,0.074-2.916,0.149
		c-0.904,0.074-1.69,0.204-2.358,0.39s-1.201,0.434-1.597,0.743C71.588,25.957,71.377,26.36,71.352,26.854z"/>
	<path fill="#864EED" d="M108.528,21.451c-0.371,0.73-0.811,1.51-1.318,2.339c-0.508,0.83-1.059,1.666-1.653,2.507
		c-0.594,0.842-1.207,1.61-1.838,2.303c-0.631,0.694-1.27,1.263-1.913,1.708c-0.644,0.446-1.263,0.669-1.857,0.669
		c-0.495,0.024-0.922-0.074-1.281-0.297c-0.358-0.223-0.65-0.539-0.873-0.947s-0.372-0.904-0.446-1.486
		c-0.074-0.581-0.074-1.207,0-1.875c0.1-0.817,0.292-1.683,0.576-2.6c0.285-0.916,0.613-1.832,0.984-2.748
		c0.371-0.916,0.749-1.801,1.133-2.655c0.383-0.854,0.718-1.628,1.002-2.321c0.285-0.693,0.483-1.275,0.594-1.746
		c0.111-0.47,0.08-0.792-0.093-0.965c-0.173-0.149-0.093-0.322,0.241-0.52c0.334-0.198,0.749-0.31,1.244-0.334
		c0.495-0.024,1.009,0.087,1.542,0.334c0.532,0.248,0.91,0.743,1.133,1.485c0.223,0.718,0.186,1.591-0.111,2.618
		c-0.297,1.028-0.712,2.099-1.244,3.212c-0.533,1.114-1.102,2.216-1.708,3.306c-0.607,1.09-1.114,2.061-1.523,2.915
		c-0.408,0.854-0.644,1.536-0.706,2.043c-0.062,0.508,0.191,0.738,0.761,0.687c0.248-0.024,0.563-0.223,0.947-0.594
		c0.384-0.372,0.811-0.848,1.281-1.43c0.47-0.582,0.953-1.231,1.448-1.95c0.495-0.718,0.966-1.436,1.412-2.154
		c0.445-0.718,0.841-1.398,1.188-2.042c0.346-0.644,0.594-1.176,0.743-1.597c0.074-0.198,0.198-0.321,0.371-0.371
		c0.173-0.049,0.334-0.049,0.483,0c0.148,0.05,0.266,0.148,0.353,0.297c0.086,0.148,0.08,0.31-0.019,0.483
		C109.183,20.145,108.899,20.721,108.528,21.451z M106.912,9.882c0.136-0.297,0.284-0.594,0.445-0.891
		c0.161-0.297,0.31-0.582,0.446-0.854c0.136-0.272,0.204-0.483,0.204-0.631c0-0.619-0.186-1.126-0.557-1.522
		c-0.372-0.396-0.787-0.693-1.244-0.892c-0.458-0.198-0.873-0.297-1.244-0.297c-0.372,0-0.557,0.087-0.557,0.26
		c0,0.148-0.074,0.359-0.223,0.631c-0.148,0.273-0.315,0.57-0.501,0.892c-0.186,0.322-0.353,0.625-0.501,0.91
		c-0.149,0.285-0.223,0.514-0.223,0.687c0,0.619,0.198,1.133,0.594,1.542c0.396,0.408,0.823,0.706,1.281,0.891
		c0.458,0.186,0.885,0.279,1.281,0.279s0.594-0.099,0.594-0.297C106.708,10.415,106.776,10.179,106.912,9.882z"/>
	<path fill="#864EED" d="M112.873,28.08c0,0.471-0.211,0.805-0.632,1.003c0.148,0.298,0.358,0.446,0.632,0.446
		c0.321,0.024,0.699-0.13,1.133-0.465c0.433-0.334,0.891-0.817,1.374-1.449c0.482-0.631,0.984-1.405,1.504-2.321
		s1.04-1.956,1.56-3.12c0.321-0.718,0.588-1.504,0.799-2.358c0.21-0.854,0.334-1.665,0.371-2.433
		c0.037-0.767-0.031-1.43-0.204-1.987c-0.174-0.557-0.495-0.897-0.966-1.021c-0.569-0.124-1.157,0.05-1.764,0.52
		c-0.607,0.471-1.214,1.102-1.82,1.894c-0.606,0.792-1.201,1.69-1.782,2.692c-0.582,1.003-1.108,1.963-1.579,2.878
		c-0.445,0.966-0.86,1.875-1.244,2.729c-0.384,0.854-0.693,1.622-0.928,2.303c-0.236,0.681-0.403,1.257-0.501,1.727
		c-0.099,0.471-0.099,0.806,0,1.003c0.099,0.198,0.019,0.403-0.241,0.613c-0.26,0.21-0.594,0.321-1.003,0.334
		c-0.409,0.012-0.829-0.117-1.263-0.39c-0.433-0.272-0.761-0.78-0.984-1.523c-0.148-0.446-0.105-1.164,0.13-2.154
		s0.594-2.148,1.077-3.473c0.483-1.324,1.046-2.754,1.69-4.29c0.644-1.535,1.306-3.083,1.987-4.642
		c0.681-1.56,1.337-3.076,1.968-4.55c0.632-1.473,1.183-2.791,1.653-3.955c0.47-1.164,0.816-2.129,1.039-2.897
		c0.224-0.767,0.261-1.226,0.111-1.374c-0.173-0.148-0.093-0.321,0.242-0.52c0.334-0.198,0.755-0.309,1.263-0.334
		c0.507-0.024,1.021,0.087,1.541,0.334c0.52,0.248,0.892,0.743,1.114,1.486c0.123,0.421,0.104,1.015-0.056,1.782
		c-0.161,0.768-0.428,1.659-0.799,2.674c-0.371,1.016-0.812,2.123-1.318,3.324c-0.508,1.201-1.059,2.433-1.652,3.695
		c0.816-0.767,1.702-1.3,2.655-1.597c0.953-0.297,1.986-0.21,3.101,0.26c0.99,0.421,1.702,1.009,2.136,1.764
		c0.433,0.755,0.688,1.584,0.762,2.488s0,1.845-0.224,2.822c-0.223,0.979-0.495,1.875-0.816,2.693
		c-0.645,1.609-1.362,2.971-2.154,4.085c-0.793,1.114-1.622,2.005-2.488,2.675c1.238-0.272,2.333-0.799,3.287-1.579
		c0.952-0.78,1.862-1.69,2.729-2.729c0.817-0.966,1.554-1.95,2.21-2.953c0.655-1.003,1.194-1.913,1.615-2.73
		c0.074-0.173,0.186-0.291,0.334-0.353c0.148-0.062,0.335-0.031,0.558,0.093c0.173,0.099,0.278,0.235,0.315,0.409
		s0.019,0.334-0.056,0.482c-0.595,1.213-1.281,2.39-2.062,3.528c-0.779,1.139-1.641,2.241-2.581,3.305
		c-0.619,0.694-1.281,1.332-1.986,1.913c-0.706,0.583-1.499,1.066-2.377,1.449c-0.88,0.385-1.876,0.65-2.99,0.799
		s-2.39,0.148-3.825,0c-0.297-0.025-0.612-0.08-0.947-0.167c-0.334-0.087-0.644-0.229-0.928-0.427s-0.526-0.465-0.724-0.799
		s-0.297-0.748-0.297-1.245c0-0.495,0.099-0.841,0.297-1.04c0.223-0.272,0.507-0.408,0.854-0.408c0.297,0,0.562,0.099,0.798,0.297
		C112.755,27.498,112.873,27.759,112.873,28.08z"/>
	<path fill="#864EED" d="M139.945,15.081c0,0.396-0.074,0.682-0.223,0.854c-0.198,0.371-0.508,0.557-0.928,0.557
		c-0.298,0-0.563-0.099-0.799-0.297c-0.235-0.198-0.353-0.458-0.353-0.78c0-0.198,0.056-0.384,0.167-0.557
		c0.111-0.173,0.253-0.321,0.427-0.446c-0.198-0.346-0.427-0.52-0.687-0.52c-0.261,0-0.539,0.106-0.836,0.316
		c-0.297,0.21-0.601,0.496-0.91,0.854c-0.31,0.359-0.612,0.724-0.91,1.096c-0.52,0.668-1.021,1.443-1.504,2.321
		c-0.482,0.879-0.91,1.783-1.281,2.711c-0.371,0.929-0.668,1.845-0.892,2.749c-0.223,0.904-0.34,1.727-0.353,2.47
		c-0.013,0.743,0.093,1.355,0.315,1.838c0.224,0.483,0.595,0.775,1.114,0.873c0.372,0.075,0.786-0.092,1.244-0.501
		c0.458-0.409,0.916-0.934,1.374-1.578c0.458-0.644,0.904-1.343,1.338-2.099c0.433-0.755,0.811-1.454,1.132-2.098
		c-0.52-0.223-0.879-0.588-1.076-1.096c-0.199-0.507-0.261-1.021-0.187-1.541c0.074-0.52,0.272-0.978,0.595-1.375
		c0.321-0.396,0.729-0.594,1.226-0.594c0.173,0,0.396,0.013,0.668,0.037c0.272,0.025,0.508,0.155,0.706,0.39
		c0.198,0.236,0.31,0.613,0.334,1.133s-0.111,1.275-0.408,2.266c0.99-0.024,1.782-0.161,2.377-0.409
		c0.594-0.247,1.059-0.52,1.393-0.817c0.334-0.297,0.557-0.588,0.668-0.873c0.112-0.284,0.192-0.464,0.242-0.539
		c0.074-0.173,0.191-0.278,0.353-0.315s0.315-0.019,0.464,0.056s0.261,0.192,0.335,0.353c0.074,0.162,0.074,0.341,0,0.539
		c-0.199,0.471-0.508,0.904-0.929,1.3c-0.422,0.396-0.91,0.731-1.467,1.003c-0.558,0.273-1.177,0.483-1.857,0.631
		s-1.368,0.21-2.061,0.186c-0.348,0.768-0.787,1.622-1.319,2.562c-0.532,0.941-1.146,1.814-1.838,2.619
		c-0.693,0.805-1.455,1.467-2.284,1.987c-0.83,0.521-1.715,0.743-2.655,0.669c-1.238-0.124-2.21-0.644-2.915-1.56
		c-0.706-0.917-1.083-2.031-1.133-3.343c-0.024-0.99,0.074-2.024,0.297-3.101s0.557-2.135,1.003-3.175
		c0.445-1.04,0.99-2.024,1.634-2.953c0.644-0.928,1.368-1.739,2.173-2.433c0.804-0.693,1.684-1.226,2.637-1.597
		c0.953-0.372,1.95-0.532,2.989-0.483c0.471,0.025,0.86,0.13,1.17,0.316c0.31,0.186,0.563,0.408,0.762,0.668
		c0.198,0.26,0.347,0.545,0.445,0.854C139.821,14.519,139.896,14.809,139.945,15.081z"/>
	<path fill="#864EED" d="M158.218,17.087c-0.05,0.842-0.235,1.727-0.557,2.655c-0.322,0.928-0.688,1.838-1.096,2.729
		c-0.408,0.892-0.817,1.74-1.226,2.544c-0.408,0.805-0.724,1.504-0.947,2.099c-0.223,0.594-0.315,1.071-0.278,1.43
		c0.037,0.36,0.303,0.539,0.799,0.539c0.223,0,0.532-0.179,0.929-0.539c0.396-0.358,0.829-0.829,1.3-1.411
		c0.47-0.582,0.959-1.238,1.467-1.968c0.507-0.73,0.984-1.455,1.43-2.173c0.445-0.718,0.842-1.405,1.188-2.061
		c0.347-0.656,0.594-1.194,0.742-1.616c0.075-0.198,0.198-0.321,0.372-0.371c0.173-0.049,0.334-0.049,0.482,0
		c0.148,0.05,0.266,0.148,0.353,0.297s0.08,0.31-0.019,0.483c-0.198,0.421-0.482,0.997-0.854,1.727
		c-0.372,0.73-0.812,1.51-1.318,2.339c-0.508,0.83-1.059,1.666-1.653,2.507c-0.594,0.842-1.207,1.61-1.838,2.303
		c-0.632,0.694-1.27,1.263-1.913,1.708c-0.644,0.446-1.263,0.669-1.856,0.669c-0.496,0.024-0.916-0.093-1.263-0.353
		c-0.347-0.261-0.632-0.613-0.854-1.059c-0.223-0.446-0.378-0.948-0.464-1.505c-0.087-0.557-0.093-1.12-0.019-1.69
		c0.123-1.015,0.358-2.018,0.705-3.008s0.725-1.937,1.133-2.841c0.409-0.903,0.811-1.733,1.207-2.488
		c0.396-0.755,0.693-1.411,0.892-1.968c0.198-0.557,0.266-0.984,0.204-1.281c-0.062-0.297-0.353-0.433-0.873-0.409
		c-0.272,0.025-0.656,0.242-1.151,0.65c-0.495,0.409-1.033,0.929-1.615,1.56c-0.582,0.631-1.17,1.325-1.764,2.08
		c-0.595,0.755-1.127,1.48-1.598,2.173c-0.47,0.965-0.959,1.925-1.467,2.878c-0.508,0.954-0.96,1.851-1.355,2.693
		c-0.396,0.842-0.687,1.584-0.872,2.228c-0.187,0.645-0.192,1.14-0.019,1.486c0.099,0.198,0.019,0.403-0.242,0.613
		c-0.26,0.21-0.594,0.321-1.002,0.334c-0.409,0.012-0.83-0.117-1.264-0.39c-0.433-0.272-0.761-0.78-0.983-1.523
		c-0.198-0.594-0.186-1.374,0.037-2.34c0.223-0.965,0.545-1.999,0.966-3.101c0.421-1.101,0.891-2.228,1.411-3.379
		c0.52-1.151,0.989-2.21,1.411-3.175c0.421-0.966,0.729-1.795,0.929-2.488c0.197-0.693,0.197-1.139,0-1.337
		c-0.174-0.149-0.094-0.322,0.241-0.52c0.334-0.198,0.755-0.31,1.263-0.334c0.507-0.024,1.021,0.087,1.541,0.334
		s0.892,0.743,1.114,1.485c0.099,0.322,0.136,0.675,0.111,1.059c-0.025,0.384-0.087,0.786-0.186,1.207
		c0.47-0.544,0.947-1.064,1.43-1.56c0.482-0.495,0.972-0.928,1.467-1.3c0.495-0.371,0.978-0.668,1.448-0.891
		c0.471-0.223,0.929-0.334,1.374-0.334c0.966-0.024,1.684,0.396,2.154,1.263C158.242,14.612,158.392,15.726,158.218,17.087z"/>
	<path fill="#864EED" d="M171.365,15.416c0-0.198,0.056-0.384,0.167-0.557c0.111-0.173,0.253-0.321,0.427-0.446
		c-0.124-0.297-0.322-0.445-0.594-0.445c-0.348-0.024-0.731,0.13-1.151,0.464c-0.422,0.334-0.873,0.817-1.355,1.449
		c-0.483,0.631-0.984,1.411-1.505,2.339c-0.52,0.929-1.04,1.963-1.56,3.101c-0.322,0.719-0.588,1.492-0.799,2.321
		c-0.21,0.83-0.328,1.622-0.353,2.377c-0.024,0.755,0.05,1.417,0.223,1.987c0.173,0.57,0.483,0.942,0.929,1.114
		c0.347,0.149,0.712,0.112,1.096-0.111c0.384-0.223,0.768-0.569,1.151-1.04c0.384-0.47,0.78-1.04,1.188-1.708
		s0.804-1.368,1.188-2.098c0.384-0.73,0.755-1.46,1.114-2.191c0.358-0.73,0.699-1.405,1.021-2.024
		c0.347-0.817,0.688-1.59,1.021-2.321c0.335-0.73,0.613-1.386,0.836-1.968c0.223-0.582,0.371-1.077,0.445-1.485
		s0.037-0.687-0.111-0.835c-0.173-0.149-0.093-0.322,0.241-0.52c0.335-0.198,0.749-0.31,1.244-0.334
		c0.495-0.024,1.009,0.087,1.542,0.334c0.532,0.248,0.909,0.743,1.133,1.485c0.223,0.718,0.186,1.591-0.111,2.618
		c-0.298,1.028-0.713,2.099-1.244,3.212c-0.533,1.114-1.103,2.216-1.709,3.306c-0.606,1.09-1.114,2.061-1.522,2.915
		c-0.408,0.854-0.645,1.536-0.706,2.043c-0.062,0.508,0.191,0.738,0.762,0.687c0.223-0.024,0.532-0.223,0.929-0.594
		c0.396-0.372,0.829-0.848,1.3-1.43c0.47-0.582,0.959-1.231,1.467-1.95c0.507-0.718,0.978-1.436,1.411-2.154
		c0.433-0.718,0.823-1.398,1.17-2.042c0.347-0.644,0.594-1.176,0.743-1.597c0.074-0.198,0.197-0.321,0.371-0.371
		c0.173-0.049,0.334-0.049,0.482,0c0.148,0.05,0.266,0.148,0.354,0.297c0.086,0.148,0.08,0.31-0.019,0.483
		c-0.199,0.421-0.483,0.997-0.854,1.727c-0.371,0.73-0.812,1.51-1.318,2.339c-0.508,0.83-1.059,1.666-1.653,2.507
		c-0.594,0.842-1.206,1.61-1.838,2.303c-0.632,0.694-1.27,1.263-1.913,1.708c-0.644,0.446-1.263,0.669-1.856,0.669
		c-0.941,0.05-1.646-0.334-2.117-1.151s-0.644-1.857-0.52-3.12c-0.471,0.768-0.966,1.467-1.485,2.098
		c-0.521,0.632-1.084,1.133-1.69,1.504c-0.606,0.372-1.25,0.595-1.931,0.669c-0.682,0.074-1.43-0.062-2.247-0.408
		c-0.99-0.396-1.702-0.979-2.136-1.747c-0.433-0.767-0.687-1.603-0.761-2.507c-0.074-0.903,0-1.844,0.223-2.822
		c0.223-0.978,0.495-1.875,0.816-2.692c0.595-1.51,1.257-2.804,1.987-3.881c0.73-1.077,1.504-1.956,2.321-2.637
		c0.817-0.681,1.658-1.17,2.525-1.467c0.866-0.297,1.745-0.433,2.637-0.409c0.297,0.025,0.613,0.081,0.947,0.167
		c0.334,0.087,0.644,0.229,0.929,0.427c0.284,0.198,0.525,0.464,0.724,0.798c0.198,0.334,0.297,0.75,0.297,1.244
		c0,0.545-0.124,0.917-0.371,1.114c-0.198,0.223-0.458,0.334-0.78,0.334c-0.297,0-0.563-0.099-0.798-0.297
		C171.483,15.998,171.365,15.738,171.365,15.416z"/>
	<path fill="#864EED" d="M176.193,10.885c-0.024,0.347-0.12,0.576-0.29,0.687c-0.169,0.111-0.356,0.099-0.562-0.037
		c-0.205-0.136-0.375-0.396-0.508-0.78c-0.134-0.383-0.176-0.897-0.126-1.541c0.097-1.04,0.498-1.832,1.205-2.377
		c0.707-0.544,1.623-0.91,2.75-1.096c1.127-0.186,2.401-0.253,3.825-0.204c1.423,0.05,2.902,0.148,4.438,0.297
		c0.421-1.114,0.73-2.03,0.929-2.749c0.198-0.718,0.235-1.139,0.111-1.263c-0.173-0.148-0.093-0.321,0.241-0.52
		c0.335-0.198,0.749-0.309,1.244-0.334c0.495-0.024,1.009,0.087,1.542,0.334c0.532,0.248,0.909,0.743,1.133,1.486
		c0.123,0.347,0.136,0.817,0.037,1.411c-0.1,0.594-0.261,1.263-0.483,2.005c1.09,0.05,2.179,0.05,3.269,0
		c1.089-0.049,2.066-0.142,2.934-0.278c0.866-0.136,1.565-0.316,2.099-0.539c0.532-0.223,0.799-0.495,0.799-0.817
		c0-0.371,0.111-0.562,0.334-0.575c0.223-0.012,0.445,0.081,0.668,0.278c0.224,0.198,0.378,0.458,0.465,0.78
		c0.086,0.322-0.019,0.619-0.316,0.892c-0.321,0.322-0.835,0.625-1.541,0.91c-0.705,0.285-1.548,0.533-2.525,0.743
		c-0.979,0.211-2.061,0.39-3.249,0.539s-2.427,0.236-3.714,0.26c-0.521,1.337-1.146,2.785-1.876,4.345
		c-0.73,1.56-1.461,3.114-2.191,4.661c-0.73,1.548-1.436,3.033-2.116,4.457c-0.682,1.424-1.226,2.674-1.635,3.751
		c-0.408,1.077-0.656,1.938-0.742,2.581c-0.087,0.645,0.093,0.942,0.538,0.892c0.247-0.024,0.563-0.223,0.947-0.594
		c0.384-0.372,0.811-0.848,1.281-1.43c0.47-0.582,0.953-1.231,1.448-1.95c0.495-0.718,0.966-1.436,1.411-2.154
		c0.446-0.718,0.842-1.398,1.188-2.042c0.347-0.644,0.595-1.176,0.743-1.597c0.074-0.198,0.197-0.321,0.371-0.371
		c0.173-0.049,0.334-0.049,0.483,0c0.148,0.05,0.266,0.148,0.353,0.297c0.086,0.148,0.08,0.31-0.019,0.483
		c-0.198,0.421-0.483,0.997-0.854,1.727c-0.371,0.73-0.812,1.51-1.318,2.339c-0.508,0.83-1.059,1.666-1.652,2.507
		c-0.595,0.842-1.207,1.61-1.839,2.303c-0.631,0.694-1.269,1.263-1.912,1.708c-0.645,0.446-1.263,0.669-1.857,0.669
		c-0.495,0.024-0.922-0.074-1.281-0.297c-0.358-0.223-0.649-0.539-0.873-0.947c-0.223-0.408-0.371-0.904-0.445-1.486
		c-0.074-0.581-0.074-1.207,0-1.875c0.1-0.767,0.39-1.85,0.873-3.25c0.482-1.398,1.059-2.934,1.727-4.605
		c0.669-1.671,1.38-3.392,2.136-5.162c0.755-1.77,1.454-3.423,2.099-4.958c-1.288,0-2.514,0.019-3.677,0.056
		c-1.164,0.037-2.186,0.143-3.064,0.315c-0.878,0.174-1.584,0.427-2.117,0.761C176.496,9.864,176.217,10.316,176.193,10.885z"/>
	<path fill="#864EED" d="M201.743,15.081c0,0.396-0.074,0.682-0.223,0.854c-0.198,0.371-0.508,0.557-0.928,0.557
		c-0.298,0-0.563-0.099-0.799-0.297c-0.235-0.198-0.353-0.458-0.353-0.78c0-0.198,0.056-0.384,0.167-0.557
		c0.111-0.173,0.253-0.321,0.427-0.446c-0.198-0.346-0.427-0.52-0.687-0.52c-0.261,0-0.539,0.106-0.836,0.316
		c-0.297,0.21-0.601,0.496-0.91,0.854c-0.31,0.359-0.612,0.724-0.91,1.096c-0.52,0.668-1.021,1.443-1.504,2.321
		c-0.482,0.879-0.91,1.783-1.281,2.711c-0.371,0.929-0.668,1.845-0.892,2.749c-0.223,0.904-0.34,1.727-0.353,2.47
		c-0.013,0.743,0.093,1.355,0.315,1.838c0.224,0.483,0.595,0.775,1.114,0.873c0.372,0.075,0.786-0.092,1.244-0.501
		c0.458-0.409,0.916-0.934,1.374-1.578c0.458-0.644,0.904-1.343,1.338-2.099c0.433-0.755,0.811-1.454,1.132-2.098
		c-0.52-0.223-0.879-0.588-1.076-1.096c-0.199-0.507-0.261-1.021-0.187-1.541c0.074-0.52,0.272-0.978,0.595-1.375
		c0.321-0.396,0.729-0.594,1.226-0.594c0.173,0,0.396,0.013,0.668,0.037c0.272,0.025,0.508,0.155,0.706,0.39
		c0.198,0.236,0.31,0.613,0.334,1.133s-0.111,1.275-0.408,2.266c0.99-0.024,1.782-0.161,2.377-0.409
		c0.594-0.247,1.059-0.52,1.393-0.817c0.334-0.297,0.557-0.588,0.668-0.873c0.112-0.284,0.192-0.464,0.242-0.539
		c0.074-0.173,0.191-0.278,0.353-0.315s0.315-0.019,0.464,0.056s0.261,0.192,0.335,0.353c0.074,0.162,0.074,0.341,0,0.539
		c-0.199,0.471-0.508,0.904-0.929,1.3c-0.422,0.396-0.91,0.731-1.467,1.003c-0.558,0.273-1.177,0.483-1.857,0.631
		s-1.368,0.21-2.061,0.186c-0.348,0.768-0.787,1.622-1.319,2.562c-0.532,0.941-1.146,1.814-1.838,2.619
		c-0.693,0.805-1.455,1.467-2.284,1.987c-0.83,0.521-1.715,0.743-2.655,0.669c-1.238-0.124-2.21-0.644-2.915-1.56
		c-0.706-0.917-1.083-2.031-1.133-3.343c-0.024-0.99,0.074-2.024,0.297-3.101s0.557-2.135,1.003-3.175
		c0.445-1.04,0.99-2.024,1.634-2.953c0.644-0.928,1.368-1.739,2.173-2.433c0.804-0.693,1.684-1.226,2.637-1.597
		c0.953-0.372,1.95-0.532,2.989-0.483c0.471,0.025,0.86,0.13,1.17,0.316c0.31,0.186,0.563,0.408,0.762,0.668
		c0.198,0.26,0.347,0.545,0.445,0.854C201.619,14.519,201.694,14.809,201.743,15.081z"/>
	<path fill="#864EED" d="M206.794,20.095c-0.074,0.149-0.192,0.248-0.353,0.297c-0.162,0.05-0.311,0.05-0.446,0
		c-0.136-0.049-0.248-0.142-0.334-0.279c-0.087-0.136-0.093-0.303-0.019-0.501c0.074-0.223,0.21-0.563,0.408-1.021
		c0.198-0.458,0.396-0.94,0.595-1.448c0.197-0.507,0.396-1.003,0.594-1.486c0.198-0.482,0.334-0.885,0.409-1.207
		c-0.57-0.272-1.059-0.706-1.468-1.3c-0.408-0.594-0.612-1.188-0.612-1.783c0-0.767,0.198-1.423,0.594-1.968
		c0.396-0.544,0.99-0.817,1.783-0.817c0.495,0,0.922,0.204,1.281,0.613c0.358,0.409,0.551,0.897,0.575,1.467
		c0,0.322-0.019,0.768-0.056,1.337c-0.037,0.57-0.105,1.04-0.204,1.412c0.124,0.099,0.291,0.161,0.501,0.186
		c0.211,0.025,0.439,0.037,0.688,0.037c0.544,0,0.972-0.062,1.281-0.186c0.31-0.124,0.576-0.254,0.799-0.39
		c0.223-0.136,0.445-0.266,0.668-0.39c0.223-0.124,0.521-0.186,0.892-0.186c0.495,0,0.99,0.125,1.485,0.372
		c0.495,0.248,0.854,0.73,1.077,1.448c0.223,0.718,0.186,1.591-0.111,2.618c-0.297,1.028-0.712,2.099-1.244,3.212
		c-0.533,1.114-1.103,2.216-1.708,3.306c-0.607,1.09-1.114,2.061-1.523,2.915c-0.408,0.854-0.644,1.536-0.705,2.043
		c-0.062,0.508,0.191,0.738,0.761,0.687c0.224-0.024,0.532-0.223,0.929-0.594c0.396-0.372,0.829-0.848,1.3-1.43
		c0.47-0.582,0.953-1.231,1.448-1.95c0.495-0.718,0.966-1.436,1.411-2.154c0.446-0.718,0.842-1.398,1.188-2.042
		c0.347-0.644,0.595-1.176,0.743-1.597c0.074-0.198,0.198-0.321,0.371-0.371c0.173-0.049,0.335-0.049,0.483,0
		c0.148,0.05,0.266,0.148,0.353,0.297s0.08,0.31-0.019,0.483c-0.198,0.421-0.482,0.997-0.854,1.727
		c-0.371,0.73-0.811,1.51-1.318,2.339c-0.508,0.83-1.059,1.666-1.652,2.507c-0.595,0.842-1.207,1.61-1.839,2.303
		c-0.631,0.694-1.269,1.263-1.912,1.708c-0.645,0.446-1.263,0.669-1.857,0.669c-0.495,0.024-0.922-0.074-1.281-0.297
		c-0.358-0.223-0.649-0.539-0.872-0.947c-0.224-0.408-0.372-0.904-0.446-1.486c-0.074-0.581-0.074-1.207,0-1.875
		c0.099-0.965,0.335-1.993,0.706-3.082s0.779-2.16,1.226-3.213c0.445-1.052,0.878-2.036,1.3-2.952
		c0.421-0.916,0.729-1.696,0.929-2.34c-0.521,0.198-1.108,0.315-1.765,0.353c-0.656,0.038-1.306-0.031-1.949-0.204
		c-0.074,0.173-0.205,0.489-0.391,0.947c-0.186,0.458-0.39,0.953-0.612,1.485c-0.223,0.533-0.446,1.053-0.669,1.56
		S206.943,19.823,206.794,20.095z"/>
</g>
</svg>
